# xmcd
#
# Track frame offsets:
#	150
#	18340
#	40059
#	60248
#	82442
#	105144
#	133491
#	151876
#	171408
#	188277
#	207802
#	235786
#	263761
#	282885
#	313087
#	324579
#	345808
#
# Disc length: 4692 seconds
#
# Revision: 0
# Processed by: cddbd v1.5.2PL0 Copyright (c) Steve Scherf et al.
# Submitted via: VUPlayer 2.46
#
DISCID=dd125211
DTITLE=Goldfrapp - Robert Wyatt - 'Felt Mountain' Radio Session - Exverpts from 
DTITLE='Ruth is a Stranger...', 'Shleep'
DYEAR=2000
DGENRE=Ps
TTITLE0=Goldfrapp - Lovely Head (Radio Session)
TTITLE1=Goldfrapp - Human (Radio Session)
TTITLE2=Goldfrapp - Pilots (Radio Session)
TTITLE3=Goldfrapp - Utopia (Radio Session)
TTITLE4=Robert Wyatt - 5 Black Notes and 1 White Note (Offenbach)
TTITLE5=Robert Wyatt - Muddy Mouse -- Muddy Mouth
TTITLE6=Robert Wyatt - Soup Song
TTITLE7=Robert Wyatt - Sonia
TTITLE8=Robert Wyatt - Song for Che
TTITLE9=Robert Wyatt - The Duchess
TTITLE10=Robert Wyatt - Maryan
TTITLE11=Robert Wyatt - Was a Friend
TTITLE12=Robert Wyatt - Free Will and Testament
TTITLE13=Robert Wyatt - September the Ninth
TTITLE14=Robert Wyatt - Out of Season
TTITLE15=Robert Wyatt - A Sunday in Madrid
TTITLE16=Robert Wyatt - The Whole Point of No Return
EXTD=
EXTT0=
EXTT1=
EXTT2=
EXTT3=
EXTT4=
EXTT5=
EXTT6=
EXTT7=
EXTT8=
EXTT9=
EXTT10=
EXTT11=
EXTT12=
EXTT13=
EXTT14=
EXTT15=
EXTT16=
PLAYORDER=
